<svg xmlns="http://www.w3.org/2000/svg" version="1.1" xmlns:xlink="http://www.w3.org/1999/xlink" xmlns:svgjs="http://svgjs.dev/svgjs" width="100%" height="100%" viewBox="0 0 1000 600"><rect width="1000" height="600" x="0" y="0" fill="#533549"/><g><rect width="333.3333333333333" height="333.3333333333333" rx="13.333333333333334" ry="13.333333333333334" y="178.1283852752298" fill="#f6b042" transform="matrix(0.8017642990434681,0,0,0.8017642990434679,0,23.555637261079482)" x="155.90615844726562"/><path d="M358.9678511326415 335.6615136799918L358.9678511326415 269.7950376774488L376.9876331643086 269.7950376774488L376.9876331643086 419.79504145048554L358.9678511326415 419.79504145048554L358.9678511326415 351.9194988406383L286.20873123119327 351.9194988406383L286.20873123119327 419.79504145048554L268.1580404824907 419.79504145048554L268.1580404824907 269.7950376774488L286.20873123119327 269.7950376774488L286.20873123119327 335.6615136799918L358.9678511326415 335.6615136799918Z " fill="#533549" transform="matrix(0.8017642990434681,0,0,0.8017642990434679,0,23.555637261079482)"/><path d="M657.1114808444036 340.2343234473992L657.1114808444036 278.91646999264344L673.8868485422556 278.91646999264344L673.8868485422556 418.55773832484897L657.1114808444036 418.55773832484897L657.1114808444036 355.36956085575287L589.3769773096803 355.36956085575287L589.3769773096803 418.55773832484897L572.5728353962231 418.55773832484897L572.5728353962231 278.91646999264344L589.3769773096803 278.91646999264344L589.3769773096803 340.2343234473992L657.1114808444036 340.2343234473992ZM761.5331092758014 383.5395179332779L761.5331092758014 370.07318503002796L743.2902565820824 370.07318503002796Q730.0253431880691 370.07318503002796 723.4072735988651 375.25254383897027Q716.7892040096609 380.4319026479126 716.7892040096609 388.31603772374694Q716.7892040096609 396.17139858397604 721.9685628186033 401.063015236866Q727.1479216275455 405.92585767415073 737.0750260113517 405.92585767415073L737.0750260113517 405.92585767415073Q748.2681958817881 405.92585767415073 754.8862654709922 399.595530240999Q761.5331092758014 393.2939770234526 761.5331092758014 383.5395179332779L761.5331092758014 383.5395179332779ZM707.236164428723 335.48657787253546L707.236164428723 335.48657787253546L707.236164428723 319.1140491931568Q719.0623670424745 311.8629468606375 738.3123172823767 311.8629468606375L738.3123172823767 311.8629468606375Q777.9056379551802 311.8629468606375 777.9056379551802 352.0605260611509L777.9056379551802 352.0605260611509L777.9056379551802 418.55773832484897L761.734528785038 418.55773832484897L761.734528785038 406.1272771833874Q753.648974199967 419.59361008663734 732.3272804364879 419.59361008663734L732.3272804364879 419.59361008663734Q717.5948820466075 419.59361008663734 708.588552562169 410.9037969738564Q699.5822230777304 402.1852096454702 699.5822230777304 388.9202962514569L699.5822230777304 388.9202962514569Q699.5822230777304 373.8138330587085 711.0919093198245 365.4117621019799Q722.5728213463132 357.03846536085655 742.4558043295306 357.03846536085655L742.4558043295306 357.03846536085655L761.5331092758014 357.03846536085655L761.5331092758014 351.6289128270723Q761.5331092758014 339.19845168561085 755.9221372327806 332.89689846806436Q750.339939405365 326.5665710349126 737.0750260113517 326.5665710349126L737.0750260113517 326.5665710349126Q720.2996583134997 326.5665710349126 707.236164428723 335.48657787253546ZM806.9100472852571 313.5318513657412L823.0523822397938 313.5318513657412L823.0523822397938 331.94734935309157Q831.3393563341016 312.4959796039527 851.6539525513974 312.4959796039527L851.6539525513974 312.4959796039527Q855.3658263644728 312.4959796039527 857.4375698880497 312.898818622426L857.4375698880497 312.898818622426L857.4375698880497 329.06992779256814Q853.0926633316592 327.6024427967011 848.5463372660321 327.6024427967011L848.5463372660321 327.6024427967011Q837.5545869048323 327.6024427967011 830.3034845723131 337.7597409053491Q823.0523822397938 347.91703901399706 823.0523822397938 361.1819524080104L823.0523822397938 361.1819524080104L823.0523822397938 418.55773832484897L806.6798535604152 418.55773832484897L806.9100472852571 313.5318513657412ZM931.6174977183455 317.04230566957983L931.6174977183455 317.04230566957983L931.6174977183455 332.58038209640677Q922.0932323530127 326.76799054414926 905.5192841643974 326.76799054414926L905.5192841643974 326.76799054414926Q897.2323100700897 326.76799054414926 892.3694676328049 330.62373543525075Q887.4778509799149 334.450706110747 887.4778509799149 340.46451717224113L887.4778509799149 340.46451717224113Q887.4778509799149 344.1763909853165 888.945335975782 346.96748989902426Q890.3840467560437 349.78736302833727 894.6426306656185 352.46336507962417Q898.872440359588 355.1681413465162 900.8578612363493 356.08891624588375Q902.8145078975052 357.03846536085655 909.4613517023146 359.91588692138L909.4613517023146 359.91588692138Q922.6974908807226 365.3254394551642 930.1787869380837 372.1449285536049Q937.6313087798395 378.9931918676508 937.6313087798395 390.58920075656056L937.6313087798395 390.58920075656056Q937.6313087798395 404.0555336598105 928.1933660613225 411.9396687356449Q918.7841975584107 419.795029595874 902.4116688790319 419.795029595874L902.4116688790319 419.795029595874Q883.3343639327612 419.795029595874 871.5369355346148 413.37837951590666L871.5369355346148 413.37837951590666L871.5369355346148 397.43746407060644Q885.4061074563381 405.7244381649141 901.3757971172435 405.7244381649141L901.3757971172435 405.7244381649141Q910.9000624825763 405.7244381649141 915.8780017822819 401.98379013623355Q920.8559410819877 398.243142107553 920.8559410819877 391.8264920275856L920.8559410819877 391.8264920275856Q920.8559410819877 384.37397018582976 915.3600659013877 380.23048313867594Q909.8641907207879 376.0869960915221 897.030890560853 370.9076372825798L897.030890560853 370.9076372825798Q885.2046879471014 366.3613112169527 878.0686824770031 359.5130479029067Q870.9039027912996 352.6647845888608 870.9039027912996 341.06877569995106L870.9039027912996 341.06877569995106Q870.9039027912996 328.03405603077965 880.74468452829 320.26501781736624Q890.5854662652804 312.4959796039527 905.3178646551607 312.4959796039527L905.3178646551607 312.4959796039527Q921.6616191189341 312.4959796039527 931.6174977183455 317.04230566957983ZM959.7874547958705 272.0969808942028L975.9585639660125 272.0969808942028L975.9585639660125 331.7459298438549Q985.2814098221087 312.06436636987416 1009.1064603432434 312.06436636987416L1009.1064603432434 312.06436636987416Q1024.2129235359916 312.06436636987416 1033.4494467452723 321.3872122259703Q1042.6571957389474 330.71005808206644 1042.6571957389474 346.6797477429719L1042.6571957389474 346.6797477429719L1042.6571957389474 418.55773832484897L1026.2846670595686 418.55773832484897L1026.2846670595686 350.59304106528384Q1026.2846670595686 339.19845168561085 1020.3859528604954 332.98322111488005Q1014.4872386614223 326.76799054414926 1004.9629732960894 326.76799054414926L1004.9629732960894 326.76799054414926Q993.3669644071798 326.76799054414926 984.6483770787935 335.6879973817721Q975.9585639660125 344.60800421939496 975.9585639660125 361.1819524080104L975.9585639660125 361.1819524080104L975.9585639660125 418.55773832484897L959.7874547958705 418.55773832484897L959.7874547958705 272.0969808942028ZM1088.8685860009548 418.55773832484897L1072.496057321576 418.55773832484897L1072.496057321576 313.5318513657412L1088.8685860009548 313.5318513657412L1088.8685860009548 418.55773832484897ZM1073.0139932024704 288.1529932019239Q1070.0214747795258 285.13170056337424 1070.0214747795258 280.5853744977471Q1070.0214747795258 276.01027421651474 1073.0139932024704 272.90265893114935Q1076.0065116254148 269.79504364578395 1080.5816119066471 269.79504364578395Q1085.1279379722741 269.79504364578395 1088.2355532576396 272.90265893114935Q1091.343168543005 276.01027421651474 1091.343168543005 280.5853744977471Q1091.343168543005 285.13170056337424 1088.2355532576396 288.1529932019239Q1085.1279379722741 291.14551162486833 1080.5816119066471 291.14551162486833Q1076.0065116254148 291.14551162486833 1073.0139932024704 288.1529932019239Z " fill="#f6b042" transform="matrix(0.8017642990434681,0,0,0.8017642990434679,0,23.555637261079482)"/></g></svg>